<?xml version="1.0" encoding="utf-8"?>
<!-- Generator: Adobe Illustrator 20.0.0, SVG Export Plug-In . SVG Version: 6.00 Build 0)  -->
<svg version="1.2" baseProfile="tiny" id="Capa_1" xmlns="http://www.w3.org/2000/svg" xmlns:xlink="http://www.w3.org/1999/xlink"
	 x="0px" y="0px" viewBox="0 0 435 229.5" overflow="scroll" xml:space="preserve">
<g>
	<path fill="#E65100" d="M206,29.3c-0.4-0.4-0.5-1-0.5-2c0-1,0.2-1.7,0.6-2.1c0.4-0.4,1.1-0.6,2.1-0.6c1,0,1.7,0.2,2,0.6
		c0.4,0.4,0.5,1.1,0.5,2.1c0,1-0.2,1.7-0.5,2s-1,0.5-2.1,0.5C207.1,29.8,206.4,29.6,206,29.3z M210.3,33.2v21.8H206V33.9L210.3,33.2
		z"/>
	<path fill="#E65100" d="M218.5,34.5c1.3-1,3.4-1.5,6.2-1.5c2.5,0,4.9,0.3,7.1,0.9l-0.6,3.1c-0.7-0.2-1.6-0.4-2.5-0.5
		c-1-0.1-1.9-0.2-2.7-0.2c-1.7,0-3.4,0.1-4.9,0.4v5.1c3.4,0.5,6,1,7.6,1.5c1.6,0.5,2.7,1.2,3.3,2c0.6,0.8,0.9,2.1,0.9,3.7
		s-0.3,2.9-0.9,3.9c-0.6,1-1.5,1.7-2.9,2.1c-1.3,0.4-3.1,0.7-5.3,0.7c-2.5,0-5.1-0.4-7.8-1.2l0.7-3.4c2.2,0.9,4.6,1.3,7.1,1.3
		c0.9,0,1.6,0,2.3-0.1c0.7-0.1,1.4-0.2,2.3-0.5v-5.1c-3.7-0.5-6.3-1-7.9-1.5c-1.6-0.5-2.6-1.1-3.1-2c-0.5-0.8-0.8-2.1-0.8-3.8
		C216.5,37.1,217.2,35.5,218.5,34.5z"/>
	<path fill="#E65100" d="M267.4,43.7c0.7,1,1,2.3,1,3.8c0,2.4-0.6,4.3-1.9,5.6c-1.2,1.3-3.1,2-5.4,2h-11.7V28.2h10.3
		c2.5,0,4.4,0.5,5.6,1.6c1.2,1.1,1.8,2.8,1.8,5.1c0,1.6-0.2,2.9-0.6,3.9c-0.4,1-1.1,1.8-2,2.5v0.3C265.7,41.9,266.7,42.6,267.4,43.7
		z M262.1,32.3c-0.5-0.6-1.4-0.9-2.7-0.9h-5.7V40h5.6c1.3,0,2.2-0.3,2.7-0.9c0.5-0.6,0.8-1.7,0.8-3.4
		C262.8,34,262.6,32.9,262.1,32.3z M263.3,50.8c0.6-0.7,0.8-1.9,0.8-3.6c0-1.5-0.3-2.6-0.8-3.2c-0.5-0.6-1.5-1-2.8-1h-6.8v8.9h6.8
		C261.8,51.9,262.7,51.5,263.3,50.8z"/>
	<path fill="#E65100" d="M280.5,52.1l-0.3,2.9c-1.1,0.3-2,0.5-2.8,0.5c-1.1,0-1.9-0.3-2.4-0.8c-0.5-0.5-0.8-1.3-0.8-2.4V27.1
		l4.3-0.6v25.4C279.1,52,279.8,52,280.5,52.1z"/>
	<path fill="#E65100" d="M288.3,54.6c-1.3-0.6-2.2-1.7-2.7-3.3c-0.5-1.6-0.8-3.9-0.8-7c0-3.1,0.3-5.4,0.8-7c0.5-1.6,1.4-2.7,2.7-3.3
		c1.3-0.6,3.2-0.9,5.8-0.9c2.6,0,4.6,0.3,5.8,0.9c1.3,0.6,2.2,1.7,2.7,3.3c0.5,1.6,0.8,3.9,0.8,7c0,3.1-0.3,5.4-0.8,7
		c-0.5,1.6-1.4,2.7-2.7,3.3s-3.2,0.9-5.8,0.9S289.6,55.2,288.3,54.6z M296.9,52c0.8,0,1.4-0.1,1.7-0.2c0.3-0.1,0.4-0.4,0.4-0.9V36.6
		h-7.7c-0.8,0-1.4,0.1-1.7,0.2c-0.3,0.1-0.4,0.4-0.4,0.9V52H296.9z"/>
	<path fill="#E65100" d="M311.6,54.5c-1.1-0.6-1.8-1.7-2.3-3.3c-0.4-1.6-0.6-3.9-0.6-6.9c0-3.1,0.2-5.4,0.6-7
		c0.4-1.6,1.2-2.7,2.3-3.3c1.1-0.6,2.7-0.9,4.8-0.9c1.2,0,2.4,0.1,3.7,0.2c1.3,0.1,2.4,0.3,3.3,0.6l-0.5,3.3c-2.1-0.4-4.1-0.6-6-0.6
		c-1.4,0-2.4,0.3-2.9,0.8c-0.5,0.5-0.8,1.5-0.8,2.8v11.5c1,0.3,2.5,0.5,4.4,0.5c0.9,0,1.8-0.1,2.7-0.2c0.9-0.2,1.9-0.4,3.2-0.8
		l0.5,3.1c-1,0.4-2.1,0.7-3.4,0.9c-1.3,0.2-2.6,0.3-4,0.3C314.3,55.5,312.7,55.2,311.6,54.5z"/>
	<path fill="#E65100" d="M333.7,45.1v10h-4.3v-28l4.3-0.6v15.6h3.4l4.6-8.5h4.5l-5.5,10l5.7,11.5H342l-4.9-10H333.7z"/>
	<path fill="#E65100" d="M362,51.8c1.1-0.2,2.5-0.4,4-0.8l0.6,3.1c-1.1,0.4-2.4,0.7-3.9,0.9c-1.6,0.2-3.2,0.3-4.8,0.3
		c-2.2,0-3.9-0.3-5.1-1s-2-1.8-2.5-3.3c-0.5-1.6-0.7-3.9-0.7-6.9c0-2.9,0.3-5.1,0.8-6.7c0.6-1.6,1.5-2.7,2.8-3.4s3.1-1,5.5-1
		c2.3,0,4.1,0.2,5.3,0.6c1.2,0.4,2.1,1,2.6,1.9c0.5,0.9,0.7,2.2,0.7,4c0,2.1-0.3,3.6-0.9,4.5c-0.6,0.9-1.8,1.5-3.5,1.8
		c-1.8,0.3-4.7,0.5-8.7,0.5v5.2c1.1,0.3,2.7,0.5,4.6,0.5C359.7,52.1,360.8,52,362,51.8z M354.7,37.2c-0.5,0.3-0.8,1-0.8,2v4.5h5.7
		c1.4,0,2.4-0.2,2.9-0.5c0.5-0.3,0.8-1,0.8-2v-4.5h-5.7C356.1,36.6,355.2,36.8,354.7,37.2z"/>
	<path fill="#E65100" d="M390.7,25.9v29.1h-2l-0.9-1.7c-0.6,0.9-1.4,1.5-2.5,1.8c-1.1,0.3-2.6,0.5-4.5,0.5c-2.3,0-4-0.3-5.1-0.9
		c-1.1-0.6-1.9-1.7-2.4-3.3c-0.4-1.6-0.7-4-0.7-7.2c0-3,0.2-5.3,0.6-6.9c0.4-1.6,1.2-2.7,2.2-3.3c1.1-0.6,2.6-0.9,4.7-0.9
		c1.5,0,2.7,0.1,3.7,0.2c1,0.2,1.8,0.4,2.5,0.8v-7.7L390.7,25.9z M386.4,36.6h-7.2c-0.8,0-1.3,0.1-1.6,0.2c-0.3,0.1-0.4,0.4-0.4,0.9
		v14.4h7.2c0.8,0,1.3-0.1,1.6-0.2c0.3-0.1,0.4-0.4,0.4-0.9V36.6z"/>
</g>
<g>
	<path fill="#FFAB00" d="M115.8,64.2c-4.5,4.5-10.1,7.3-15.2,10.9c-2.5,1.5-3.8,3.3-3.8,6.1c0,3.5-0.3,7.1-0.5,10.6
		c-0.3,4-0.3,8.3-1.5,12.1c-2.3,6.3-2,12.6-2.5,18.9c-1,12.6-2,25.3-3.3,37.9c-0.8,8.3-4.3,16.2-8.3,23.2
		c-3.8,6.8-10.1,12.1-17.7,15.2c-3,1.3-6.3,1.5-9.3,1.3c-3.3,1-7.1,1.3-10.6,0.5c0,0-0.3-0.3-0.5-0.5c2-0.5,3.8,0,5.8-0.5
		c-1.3-0.5-3.8,0.8-3.5-2c-0.3,0-1-0.3-1.5-0.3c-0.8-0.3-1.5-0.5-2-0.8c-0.5-0.3-1-0.8-1-1.3c-2-1-3.8-2.3-5.8-3.5
		c0,0.5-0.5,1-1,1.8c0,0,0.5,0.8,1,1c1,1,2.3,1,3.3,3c-2.5,0.8-4.5-0.3-6.3-1c-3-1.5-5.8-3.8-7.6-6.3c-2-2.5-3.5-5.3-4.5-8.1
		c-2-5.3-2.8-11.1-3-16.9c-0.8-10.6,0.3-21.2,3.5-31.6c0.3-0.5,0.5-1.3,0.8-2c1-2.5,2.5-4.8,4.3-6.8c3.5-3.8,8.1-3,11.4,0.8
		c4.8,6.1,8.8,12.4,11.9,19.4c2.3,5.1,2.3,9.1-0.8,13.4c-4,5.6-3.5,11.9-2.5,18.2c0.5,2.8,2.3,3.5,4.8,2.5c3.3-1.3,6.3-3,7.6-6.8
		c4.3-11.6,7.6-23.5,8.3-36.1c0.5-5.6,4.8-71-0.5-71c-1.3-0.3-2.5-0.3-4-0.3c0.5,0,1.5-0.3,1,1.8c0,0,0.5,0.3,0.8,0.3
		c0.8,0.3,1.8,0,2.5,1.3c-1.3,0.8-2.5,0.8-3.5,0.8C54.6,70.5,48.1,68.8,41,67c-1.8-0.5-3.8-1-5.8-2.3c-2-1.3-3.5-3-4.5-4.8
		c-1-1.5-1.8-3-2.3-4.5c-0.3-0.3-0.5-0.3-0.8-0.5c-5.3-4.8-8.8-17.7,2.3-17.4c1.8,0,3.8-0.5,5.6-0.5c11.4,1.3,22.2-1.3,33.1-3.3
		c8.6-1.3,17.2-2.3,25.5-3.3c4.3-0.5,7.6,1,9.8,4.5c4.3,7.1,9.1,13.9,13.1,21C118.8,58.7,118.8,61.4,115.8,64.2z"/>
	<path fill="#FFAB00" d="M218,66.5c0,0.5,0,1,0,1.5c0,0.5,0,1,0,1.8c-0.3,1.8-0.5,3.8-0.8,5.6l-0.5,1.5l-0.3,1.3
		c-0.3,0.8-0.5,1.5-0.5,2c-0.3,1.3-1,2.3-1.5,3.5c-1,2.3-2.3,4.5-3.8,6.6c-1,1.8-2.5,3-3.3,4.8c-0.5,1.8-2.5,2.5-3.5,4
		c-0.3,0.3-0.8,0.5-1,1c-0.5,0.3-0.8,0.8-0.8,1.3c-0.8-0.3-0.5,1-1.5,0.5c-0.3,0-0.8,0.5-1,0.8c-2,1.8-4,3.5-6.8,4.5
		c-0.5,1.3-2,1-3,1.5c-0.8,0.8-2,1-3,1.5c-1.3,0.5-2.3,1-3.5,1.3c-0.5,0-1,0.3-1.5-0.3c0.5-0.5,1-1,1.5-1.5c-1.5,0.5-3.5-1-4.8,0
		c0.3-0.8,1.3-0.5,1.8-1.3c-0.5-0.3-0.5,0.3-1.3-0.3c0-0.3,0.3-0.3,0.3-0.5c1.5-0.5,2.8-1,4.3-1.5c0-0.3,0.8,0,0.3-0.8
		c-0.5-0.5-0.5,0-0.8,0c-1,0-1.8,0.3-2.5,0.5c-1.5,0.5-3,0.8-4.8,0.8c1.5-1,3.3-2,5.3-3c-1.8-0.5-2,1.3-3.5,0.8
		c-0.3-0.3,0.3-0.5,0-0.8c-0.8-0.3-1.3-1-2-1.3c-1-0.3-2-0.3-3-0.3c0.8-0.5,1-1,1.3-1.8c-0.5-0.3-0.8,0-1,0c-0.3,0-0.5,0-0.8-0.3
		c-0.3-0.5,0-0.5,0.3-0.5c1,0,1.5-0.5,2-1c-0.5-0.8-0.5-0.3-1.3-0.8c3.5-0.5,5.8-2.8,8.1-4.8c-2,0.3-2.8,1.5-4.5,1.8
		c0.3-0.8,1-1,1.5-1.5c1-0.3,1.3-1.3,2.3-1.5c0.3-0.3,0.5-0.3,0-0.8c-0.5-0.5-0.3,0.3-0.8,0c-0.3-0.5,0-0.5,0.3-0.8
		c0-0.3,0.3-0.3-0.3-0.5c0-0.3-0.3-0.3-0.5-0.3c0-0.3,0,0,0,0.3c-0.3,0.8-0.5,1-1.8,1c-1,0-1.5,0.5-2,0.8c-0.5,0.3-0.8,0.5-1.5,0.5
		c0-0.8,1-0.8,1-1.5c-0.8-0.3-1,0-1.3,0.3c-1,0.3-1.8,0.8-2.8,1c-0.3,0.3-0.5,0-0.8-0.3c-0.5-0.3-0.8-0.5-1-0.8
		c-0.3-0.5,0.3-0.5,0.3-0.5c1,0.3,1.3-0.5,1.8-1c0.5-0.3,1-0.5,1-1.3c-1.3,0.5-2.5,1.3-3.5,1.8c-0.5-0.8-0.3-0.8,0-1
		c1-0.3,2-0.8,2.8-1.3c1.5-1.3,3.5-2,4.8-3.5c0.8-0.5,1.5-1.3,2.3-1.8c0.5-0.5,0.8-1.3,1.3-1.8c0-0.3,0.3-0.5,0.5-0.5
		c0.5-0.5,0.5-1.3,1.3-1.5c0.3-0.3,0-0.5,0-1v-0.3c0.5-0.8,0.8-1.5,1-2.3c0.3,0,0.5,0,0.5,0c0-0.3,0.3-0.3,0.3-0.3c0.3-1,1-2,1-3
		c0-0.5,0.8-0.8,0-1.3c0,0,0,0,0-0.3c-0.5,0-0.5-0.3-0.5-0.3c0.5-1,0-2.3-0.3-3.3c0-0.5-0.3-1-0.8-1.3l-0.3-0.3
		c-0.8-0.8-1.5-1.3-2.5-1.8c-0.5-0.3-0.8-0.3-1.3-0.3c-1.8,0.5-3.3,1-5.1,1.5c-0.8,0.3-1.5,0.5-2.3,0.8c-0.3,0.3-0.8,0.5-1,0.5
		c-1,0.8-2.3,1.8-3,2.5c-1,0.3-1.8,0.5-2.5,0.8c-0.5,0.5-0.8,1.3-1.3,1.8c-4,5.1-8.3,10.1-11.4,15.4c-6.8,12.9,2,26.3,18.2,28
		c9.6,1,18.4,3.5,27,7.3c6.6,2.8,11.1,7.3,12.9,13.4c4.5,14.9,5.1,29.3-2.8,43.7c-7.3,12.6-17.9,20.5-34.3,21.7
		c-4,0.3-8.1,0.5-12.1,0.8c-3.8,0.3-7.6-0.3-10.9-0.8c0.3,0.3,0.8,0.5,1.3,0.8c-0.5-0.3-1,0-1.8,0c0.3,0.3,0.5,0.3,0.8,0.3
		s0.3,0.3,0.3,0.3c0,0.3-0.3,0.3-0.3,0c-0.8-0.3-1.3-0.3-2-0.3c0,0.3,0.3,0.3,0.3,0.5c-2.3-1-4.8-1.5-7.1-2.5c0.8,0.8,2,1,3,1.8
		c-0.5,0-1-0.5-1.8-0.8c-0.8-0.3-1.5-0.5-2.3-1c0,0-0.3,0-0.5,0c-0.3,0.3,0.3,0.3,0.3,0.5c-0.3,0-0.5,0-0.5-0.3c-0.3,0-0.3,0-0.5,0
		c0,0.3,0,0.3,0,0.3h0.3c0.8,0.3,1.3,0.5,1.8,1c0.3,0.5,1,0.5,1.8,0.8c0.3,0.3,0.8,0.5,1,0.8c-0.8,0-1.3-0.5-1.8-0.5
		c0.3,0.3,0.5,0.5,0.8,0.5c1,0.5,2,0.8,2.8,1.3c0.3,0,0.5,0,0.5,0.3c0,0.3,0,0.3,0,0.5c-0.3,0-0.5,0-0.5,0c-0.8-0.5-1.5-0.5-2.3-0.8
		c-0.5-0.3-1.3-0.5-1.8-0.5c1.3,0.8,2.8,1.3,4.3,1.5c-0.5,0.3-0.8,0.3-1,0c-1.3-0.3-2.3-0.8-3.5-1.3c-2-0.8-4-1.8-5.8-3
		c-1-0.5-2-1-2.8-1.8c-1-0.5-1.8-1-2.8-1.8c-0.5-0.5-1-0.8-1.5-1.5c-0.3-0.3-1-0.3-1.3-0.8c-0.8-0.5-1.3-1-2-1.8
		c0-0.3,0-0.3-0.3-0.5c-0.8-0.8-1.5-1.8-2.5-2.5c-0.5-0.8-0.8-1.5-1.8-1.8c-0.3-0.3-0.3-0.3-0.5-0.5c-1.3-1.8-2.5-3.5-3.8-5.3
		c-0.5-0.8-1-1.8-1.5-2.5c-1.3-2-2.3-4-3-6.1c-0.5-1-1.3-2.3-1.5-3.5c-1-2.8-1.8-5.3-2.3-8.1c-0.3-0.5-0.5-1.3,0-1.8
		c0-0.3,0-0.5-0.3-0.8c-0.3-0.5-0.3-1.3-0.3-1.8c0-1,0-1.8,0-2.8c0-3.3,0.3-6.8,1.5-10.1c0.8-2.5,1.8-5.1,3.5-7.8
		c0.5-0.8,1-1,1.3-1.8l0.3-0.3l0.5-0.5l0.3-0.3c0.5-0.3,0.8-0.8,1.3-1c1-0.8,2.3-1.5,5.3-2c1.5-0.3,4,0.5,3.3,0.3
		c-2.5,0,0.3,0.5,1,1c0,0.3,0,0.3,0.3,0.3c4.5-1,10.1,1.5,10.6,5.6c1,5.6,2.5,11.1,0,16.9c-0.8,1.3-1.3,3-1.5,4.5c0,0.5,0,1,0,1.5
		c0.5,1.3,1,2.3,1.5,3.5c1,2,2.3,4.3,3.5,5.8c1.3,1.5,3,2.5,5.6,3.5c2.3,1,4.8,1.8,7.3,2.3c4.5,1,9.1,1,13.4,0.3
		c0.8,0,1.5-0.3,2.3-0.5c12.4-4.5,19.2-16.4,19.7-26.5c0.3-4-1-5.3-6.1-6.1c-1.3,0-2.3-0.3-3.5-0.5c-0.5,0-1.3,0-1.8,0
		c3,1.5,6.3,1,8.6,2.8c-1.3,0.8-2.5,0.3-3.8,0.3c1.3,0.8,3,0,4,1.5c-2.8,1.5-6.3,1.3-9.3,0.5c-9.3-2.3-17.7-6.6-24.8-11.6
		c-0.5-0.5-1.3-1-1.8-1.5c-3-2.5-5.8-5.1-8.3-7.8c-6.8-7.3-13.1-15.9-15.7-26c-1-3.3-1.5-6.6-1.5-10.1c-0.5-3-0.8-6.3-0.8-9.6
		c0.3-13.9,5.8-24.7,15.9-33.3c1.5-1.3,3-2.3,4.8-3.5c1-1,2.8-1.5,3.3-3c1.5,0,2.3-1.3,3.5-2c1.5-1,3.5-2,5.3-2.8
		c2-0.8,3.8-1.8,6.1-2.5c1-0.5,2-0.5,2.8-0.8c5.1-1.5,10.6-2.5,15.9-2.3c0.5,0,1.5-0.3,1.5,0.5c0.5,0,1,0,1.3,0
		c1.3-0.3,2.8,0,3.5,0.5l0.3,0.3c0.3,0.5,1,0.8,1.5,0.8c1.8-0.3,2.8,1.3,4.8,0.3l0.5,0.3c1,1.8,3,1.8,4.5,2.5c1.8,1.3,3.5,2,5.1,3.3
		c2.8,2.3,5.6,5.1,7.6,7.8c1.8,2,3,4.3,4,6.8c1.3,3,1.8,6.6,2.3,10.1C218,65,218,65.7,218,66.5z"/>
</g>
<path fill="#D8D8D8" d="M371.7,155.7H215.1c-16.6,0-30.1,13.5-30.1,30.1l0,0c0,16.6,13.5,30.1,30.1,30.1h156.7
	c16.6,0,30.1-13.5,30.1-30.1l0,0C401.8,169.2,388.4,155.7,371.7,155.7z"/>
<g>
	<circle fill="#424C59" cx="214.9" cy="185.7" r="15.4"/>
	<circle fill="#424C59" cx="256.4" cy="185.7" r="10.9"/>
	<circle fill="#424C59" cx="330.5" cy="185.7" r="10.9"/>
	<circle fill="#424C59" cx="293.4" cy="185.7" r="10.9"/>
	<circle fill="#424C59" cx="372" cy="185.7" r="15.4"/>
</g>
<path fill="#F9572B" d="M386.4,122.7c0,18.3-14.8,33.1-33.1,33.1c-9.6,0-18.2-4-24.2-10.5c-5.5-5.9-8.9-13.8-8.9-22.6
	c0-8.7,3.4-16.6,8.9-22.5c6-6.5,14.6-10.5,24.2-10.5C371.6,89.6,386.4,104.4,386.4,122.7z"/>
<path fill="#D8401D" d="M338,122.7c0,8.7-3.4,16.6-8.9,22.6c-5.5-5.9-8.9-13.8-8.9-22.6c0-8.7,3.4-16.6,8.9-22.5
	C334.6,106,338,113.9,338,122.7z"/>
<path fill="#FFFFFF" d="M358,122.7l9.4-9.4c1.3-1.3,1.3-3.4,0-4.7c-1.3-1.3-3.4-1.3-4.7,0l-9.4,9.4l-9.4-9.4c-1.3-1.3-3.4-1.3-4.7,0
	c-1.3,1.3-1.3,3.4,0,4.7l9.4,9.4l-9.4,9.4c-1.3,1.3-1.3,3.4,0,4.7c0.6,0.6,1.5,1,2.3,1c0.8,0,1.7-0.3,2.3-1l9.4-9.4l9.4,9.4
	c0.6,0.6,1.5,1,2.3,1s1.7-0.3,2.3-1c1.3-1.3,1.3-3.4,0-4.7L358,122.7z"/>
<path fill="#45B8C4" d="M326.5,122.7c0,18.3-14.8,33.1-33.1,33.1c-9.6,0-18.2-4-24.2-10.5c-5.5-5.9-8.9-13.8-8.9-22.6
	c0-8.7,3.4-16.6,8.9-22.6c6-6.5,14.6-10.5,24.2-10.5C311.7,89.6,326.5,104.4,326.5,122.7z"/>
<path fill="#239999" d="M278.1,122.7c0,8.7-3.4,16.6-8.9,22.6c-5.5-5.9-8.9-13.8-8.9-22.6c0-8.7,3.4-16.6,8.9-22.6
	C274.7,106,278.1,113.9,278.1,122.7z"/>
<g>
	<path fill="#DD2C00" d="M225.7,84.1c-1.2,0-2.2-0.2-3.1-0.7c-0.9-0.5-1.5-1.2-2-2.1c-0.5-0.9-0.7-1.9-0.7-3.1
		c0-0.8,0.1-1.6,0.3-2.4s0.5-1.6,0.8-2.2h2.8c-0.2,0.8-0.4,1.5-0.5,2.4s-0.2,1.6-0.2,2.3c0,1,0.3,1.8,0.8,2.4c0.5,0.6,1.2,0.9,2,0.9
		h0.6c1.1,0,1.9-0.3,2.4-0.9c0.5-0.6,0.8-1.4,0.8-2.5V63.1h3.1v13.4h2.7c0.1,0,0.1,0,0.1,0.1V79c0,0.1,0,0.1-0.1,0.1h-2.8
		c-0.3,3.4-2.3,5-6.2,5H225.7z"/>
	<path fill="#DD2C00" d="M235.4,79.1c-0.1,0-0.1,0-0.1-0.1v-2.3c0-0.1,0-0.1,0.1-0.1h2.5V63.1h3.1v9.2c1.3-2.6,3.2-3.9,5.7-3.9
		c1.7,0,3,0.5,3.9,1.4c0.9,0.9,1.3,2.3,1.3,4.2v2.5h2.7c0.1,0,0.1,0,0.1,0.1V79c0,0.1,0,0.1-0.1,0.1H235.4z M248.7,76.5V74
		c0-1-0.2-1.8-0.7-2.3c-0.5-0.5-1.2-0.7-2.2-0.7c-1.9,0-3.5,1.3-4.9,3.9v1.6H248.7z"/>
	<path fill="#DD2C00" d="M267.3,76.5c0.1,0,0.1,0,0.1,0.1V79c0,0.1,0,0.1-0.1,0.1h-2.7c-0.7,0-1.3-0.1-2.1-0.3s-1.3-0.5-1.8-0.8
		c-1.3,0.8-2.6,1.2-3.9,1.2h-2.4c-0.1,0-0.1,0-0.1-0.1v-2.3c0-0.1,0-0.1,0.1-0.1h2.1c0.3,0,0.7,0,1-0.1c0.4-0.1,0.7-0.2,0.9-0.3
		c-0.4-0.3-0.9-0.8-1.3-1.5s-0.9-1.4-1.2-2.3c-0.3-0.8-0.6-1.6-0.7-2.4c0.8-0.7,1.8-1.2,2.8-1.6c1.1-0.4,2.1-0.6,3.1-0.6
		c2,0,3.8,0.4,5.3,1.3c0,1.5-0.3,2.9-0.9,4.2s-1.4,2.2-2.5,2.9c0.5,0.3,1.2,0.4,1.9,0.4H267.3z M260.8,74.8c1.6-1,2.5-2.4,2.6-4.2
		c-0.6-0.3-1.4-0.4-2.4-0.4c-0.5,0-0.9,0.1-1.5,0.2s-0.9,0.3-1.2,0.6c0.2,0.8,0.5,1.5,0.9,2.2C259.7,74,260.2,74.5,260.8,74.8z"/>
	<path fill="#DD2C00" d="M269.5,76.5c-0.4-0.9-0.6-1.8-0.6-2.9c0-0.6,0.1-1.3,0.3-2s0.5-1.3,0.8-1.8c0.7-0.4,1.4-0.7,2.2-0.9
		c0.8-0.2,1.4-0.3,2-0.3c1,0,1.8,0.2,2.6,0.6c0.8,0.4,1.4,1,1.8,1.7c0.4,0.7,0.6,1.6,0.6,2.6c0,1.1-0.2,2-0.7,2.8
		c-0.5,0.8-1.2,1.5-2.1,1.9s-1.9,0.7-2.9,0.7h-6.4c-0.1,0-0.1,0-0.1-0.1v-2.3c0-0.1,0-0.1,0.1-0.1H269.5z M271.8,74.1
		c0,0.7,0.2,1.5,0.5,2.5h0.8c0.8,0,1.6-0.3,2.1-0.9c0.6-0.6,0.9-1.3,0.9-2.1c0-0.7-0.2-1.3-0.5-1.8c-0.4-0.4-0.8-0.7-1.4-0.7
		c-0.6,0-1.3,0.2-2,0.6C271.9,72.5,271.8,73.3,271.8,74.1z"/>
	<path fill="#DD2C00" d="M293,79.1c-1.3,0-2.3-0.4-3.1-1.1c-0.7-0.8-1.1-1.8-1.1-3.1c0-0.5,0.1-1.1,0.2-1.7s0.3-1.1,0.5-1.5h2.8
		c-0.2,0.9-0.3,1.8-0.3,2.7c0,0.6,0.2,1.2,0.5,1.6s0.8,0.6,1.4,0.6h6.8v-7.9h3.1v7.9h2.7c0.1,0,0.1,0,0.1,0.1V79
		c0,0.1,0,0.1-0.1,0.1H293z M294.6,68.7c-0.4,0-0.8-0.1-1-0.4s-0.4-0.6-0.4-1.1c0-0.5,0.1-0.8,0.4-1.1c0.2-0.3,0.6-0.4,1-0.4
		c0.4,0,0.8,0.1,1,0.4s0.4,0.6,0.4,1.1s-0.1,0.8-0.4,1.1C295.3,68.5,295,68.7,294.6,68.7z M298.1,68.7c-0.4,0-0.8-0.1-1-0.4
		s-0.4-0.6-0.4-1.1c0-0.5,0.1-0.8,0.4-1.1c0.2-0.3,0.6-0.4,1-0.4s0.8,0.1,1,0.4s0.4,0.6,0.4,1.1c0,0.5-0.1,0.8-0.4,1.1
		C298.9,68.5,298.5,68.7,298.1,68.7z"/>
	<path fill="#DD2C00" d="M314.9,76.5c0.1,0,0.1,0,0.1,0.1V79c0,0.1,0,0.1-0.1,0.1h-8.5c-0.1,0-0.1,0-0.1-0.1v-2.3
		c0-0.1,0-0.1,0.1-0.1h2.6v-7.9h3.1v7.9H314.9z M310.6,84.3c-0.4,0-0.8-0.1-1-0.4s-0.4-0.6-0.4-1.1c0-0.5,0.1-0.8,0.4-1.1
		c0.3-0.3,0.6-0.4,1-0.4c0.4,0,0.8,0.1,1,0.4c0.3,0.3,0.4,0.6,0.4,1.1c0,0.5-0.1,0.8-0.4,1.1C311.3,84.2,311,84.3,310.6,84.3z"/>
	<path fill="#DD2C00" d="M314.7,79.1c-0.1,0-0.1,0-0.1-0.1v-2.3c0-0.1,0-0.1,0.1-0.1h3.7v-7.9h3.1v10.4H314.7z M316.4,84.3
		c-0.4,0-0.8-0.1-1-0.4s-0.4-0.6-0.4-1.1c0-0.5,0.1-0.8,0.4-1.1c0.2-0.3,0.6-0.4,1-0.4c0.4,0,0.8,0.1,1,0.4s0.4,0.6,0.4,1.1
		s-0.1,0.8-0.4,1.1C317.2,84.2,316.8,84.3,316.4,84.3z M320,84.3c-0.4,0-0.8-0.1-1-0.4c-0.3-0.3-0.4-0.6-0.4-1.1
		c0-0.5,0.1-0.8,0.4-1.1c0.3-0.3,0.6-0.4,1-0.4s0.8,0.1,1,0.4s0.4,0.6,0.4,1.1c0,0.5-0.1,0.8-0.4,1.1S320.4,84.3,320,84.3z"/>
	<path fill="#DD2C00" d="M333.4,76.5c0.1,0,0.1,0,0.1,0.1V79c0,0.1,0,0.1-0.1,0.1h-2.7v0.3c0,1.4-0.4,2.6-1.2,3.4
		c-0.8,0.8-1.9,1.3-3.2,1.3c-0.7,0-1.4-0.1-2-0.3c-0.6-0.2-1.2-0.5-1.9-0.9l1.3-2c0.4,0.2,0.7,0.4,1,0.5c0.3,0.1,0.6,0.1,1,0.1
		c0.6,0,1-0.2,1.4-0.6c0.3-0.4,0.5-1,0.5-1.6V68.7h3.1v7.9H333.4z"/>
	<path fill="#DD2C00" d="M333.2,79.1c-0.1,0-0.1,0-0.1-0.1v-2.3c0-0.1,0-0.1,0.1-0.1h8.2v-3.4c0-0.8-0.3-1.5-0.9-1.9
		s-1.4-0.7-2.5-0.7h-3.6v-2.3c0.7-1.6,1.8-2.9,3.1-4.1c1.4-1.2,2.9-2.1,4.7-2.7l1.1,2.8c-1.2,0.4-2.4,0.9-3.4,1.6s-1.8,1.4-2.3,2.2
		h0.8c4,0,6,1.6,6,4.7v3.8h2.7c0.1,0,0.1,0,0.1,0.1V79c0,0.1,0,0.1-0.1,0.1H333.2z"/>
	<path fill="#DD2C00" d="M347.1,79.1c-0.1,0-0.1,0-0.1-0.1v-2.3c0-0.1,0-0.1,0.1-0.1h2.6v-6.2h3.1v6.2h1.8c0.7,0,1.2-0.2,1.5-0.6
		c0.3-0.4,0.5-1,0.5-1.9v-3.8h3.1v4.1c0,0.3,0,0.7-0.1,0.9c0.3,0.5,0.7,0.8,1,1s0.8,0.3,1.3,0.3h1.3v-7.9h3.1v10.4h-4.4
		c-1.2,0-2.3-0.5-3.3-1.6c-0.8,1.1-2,1.6-3.5,1.6H347.1z"/>
	<path fill="#DD2C00" d="M376.1,76.5c0.1,0,0.1,0,0.1,0.1V79c0,0.1,0,0.1-0.1,0.1h-5.8v-16h3.1v13.4H376.1z"/>
	<path fill="#DD2C00" d="M378.9,76.5c-0.7-0.8-1-1.7-1-2.8c0-1.6,0.5-2.8,1.6-3.7c1.1-0.9,2.6-1.4,4.5-1.4h3.7v10.4h-11.9
		c-0.1,0-0.1,0-0.1-0.1v-2.3c0-0.1,0-0.1,0.1-0.1H378.9z M384.7,76.5v-5.4h-0.6c-0.9,0-1.7,0.2-2.2,0.7c-0.5,0.5-0.8,1.2-0.8,2
		c0,0.8,0.3,1.5,0.8,1.9c0.5,0.5,1.2,0.7,2.2,0.7H384.7z M383.8,66.9c-0.4,0-0.8-0.1-1-0.4c-0.3-0.3-0.4-0.6-0.4-1.1
		c0-0.5,0.1-0.8,0.4-1.1c0.3-0.3,0.6-0.4,1-0.4c0.4,0,0.8,0.1,1,0.4c0.3,0.3,0.4,0.6,0.4,1.1c0,0.5-0.1,0.8-0.4,1.1
		C384.6,66.7,384.2,66.9,383.8,66.9z"/>
	<path fill="#DD2C00" d="M397.4,76.5c0.1,0,0.1,0,0.1,0.1V79c0,0.1,0,0.1-0.1,0.1h-5.8v-16h3.1v13.4H397.4z"/>
	<path fill="#DD2C00" d="M397.2,79.1c-0.1,0-0.1,0-0.1-0.1v-2.3c0-0.1,0-0.1,0.1-0.1h8.5c-0.6-0.5-1-1.5-1.3-3
		c-0.2-0.9-0.5-1.6-0.8-2c-0.4-0.4-0.9-0.6-1.7-0.6c-0.5,0-1,0.1-1.4,0.2c-0.4,0.1-0.9,0.3-1.4,0.6l-0.9-2.3c1.3-0.7,2.7-1,4.4-1
		c1.4,0,2.5,0.3,3.3,0.9s1.3,1.7,1.5,3.1c0.4,2.1,0.9,3.4,1.5,4h1.4c0.1,0,0.1,0,0.1,0.1V79c0,0.1,0,0.1-0.1,0.1H397.2z M402.3,84.3
		c-0.4,0-0.8-0.1-1-0.4c-0.3-0.3-0.4-0.6-0.4-1.1c0-0.5,0.1-0.8,0.4-1.1c0.3-0.3,0.6-0.4,1-0.4c0.4,0,0.8,0.1,1,0.4
		c0.3,0.3,0.4,0.6,0.4,1.1c0,0.5-0.1,0.8-0.4,1.1C403.1,84.2,402.7,84.3,402.3,84.3z"/>
	<path fill="#DD2C00" d="M410,79.1c-0.1,0-0.1,0-0.1-0.1v-2.3c0-0.1,0-0.1,0.1-0.1h2.6V63.1h3.1v16H410z"/>
	<path fill="#DD2C00" d="M419.9,63.1h3.1v16h-3.1V63.1z"/>
</g>
<path fill="#FFFFFF" d="M289,139.7c-1,0-2-0.5-2.7-1.3l-8.9-11.9c-1.1-1.5-0.8-3.6,0.7-4.6c1.5-1.1,3.6-0.8,4.6,0.7l6,8.1l15.1-23.4
	c1-1.5,3-2,4.6-1c1.5,1,2,3,1,4.6l-17.7,27.4c-0.6,0.9-1.6,1.5-2.7,1.5C289,139.7,289,139.7,289,139.7z"/>
<circle fill="#FCC63D" cx="233.5" cy="122.7" r="33.1"/>
<g>
	<path fill="#FFFFFF" d="M224.1,136.8c-0.8,0-1.7-0.3-2.3-1L210.9,125c-1.3-1.3-1.3-3.4,0-4.7l10.8-10.8c1.3-1.3,3.4-1.3,4.7,0
		c1.3,1.3,1.3,3.4,0,4.7l-8.4,8.4l8.4,8.4c1.3,1.3,1.3,3.4,0,4.7C225.8,136.4,224.9,136.8,224.1,136.8z"/>
	<path fill="#FFFFFF" d="M242.9,136.8c-0.8,0-1.7-0.3-2.3-1c-1.3-1.3-1.3-3.4,0-4.7l8.4-8.4l-8.4-8.4c-1.3-1.3-1.3-3.4,0-4.7
		c1.3-1.3,3.4-1.3,4.7,0l10.8,10.8c1.3,1.3,1.3,3.4,0,4.7l-10.8,10.8C244.6,136.4,243.8,136.8,242.9,136.8z"/>
</g>
<path fill="#424C59" d="M371.7,219.2H215.1c-18.4,0-33.4-15-33.4-33.4s15-33.4,33.4-33.4h156.7c18.4,0,33.4,15,33.4,33.4
	S390.2,219.2,371.7,219.2z M215.1,159.1c-14.8,0-26.8,12-26.8,26.8s12,26.8,26.8,26.8h156.7c14.8,0,26.8-12,26.8-26.8
	s-12-26.8-26.8-26.8H215.1z"/>
</svg>
